<?xml version="1.0" encoding="UTF-8" standalone="no"?>
<svg
   id="Layer_1"
   data-name="Layer 1"
   viewBox="0 0 670.33 156.41987"
   version="1.1"
   width="670.33002"
   height="156.41986"
   xmlns="http://www.w3.org/2000/svg"
   xmlns:svg="http://www.w3.org/2000/svg"
   xmlns:rdf="http://www.w3.org/1999/02/2images2-rdf-syntax-ns#"
   xmlns:cc="http://creativecommons.org/ns#"
   xmlns:dc="http://purl.org/dc/elements/1.1/">
  <defs
     id="defs1049" />
  <title
     id="title1026">Unbound_Outline_Black</title>
  <g
     id="g1044"
     transform="translate(-78.94,-78.929903)">
    <path
       d="m 289.86,173.78 c -6.9,3.55 -13.61,5.57 -18.44,5.54 -5.93,0 -9.29,-2.69 -9.29,-11.81 v -42.38 h -12.82 v 44.18 c 0,15.15 7.88,21.29 18.65,21.26 7,0 15,-2.62 22.6,-6.49 l 0.6,5 h 11.53 v -64 h -12.82 z"
       id="path1028" />
    <path
       d="m 358.27,123.68 c -7.32,0 -16.08,2.51 -24.78,6.59 l -0.62,-5.14 h -11.52 v 64 h 12.83 v -48.54 c 7.95,-3.63 15.4,-5.66 20.89,-5.66 6.28,0 9.82,2.67 9.82,11.81 v 42.41 h 12.81 v -44.21 c 0,-15.2 -8.05,-21.26 -19.43,-21.26 z"
       id="path1030" />
    <path
       d="m 430.53,123.68 c -7.06,0 -12.62,1.71 -21.19,6.45 v -31.6 h -12.82 v 90.62 H 408 l 0.64,-5.37 c 9.11,5.11 14.8,6.82 21.9,6.82 19.31,0 24.5,-12.67 24.52,-33.37 0.02,-20.7 -5.18,-33.55 -24.53,-33.55 z M 427,179.35 c -4.9,0 -8.93,-1.08 -17.64,-5.86 v -32.7 c 8.6,-4.73 12.65,-5.86 17.68,-5.86 11.78,0 14.9,6.36 14.92,22.2 0.02,15.84 -3.16,22.22 -14.96,22.22 z"
       id="path1032" />
    <path
       d="m 499.61,123.69 c -22.66,0 -29.81,12.2 -29.81,33.46 0,21.26 7.2,33.45 29.81,33.45 22.61,0 29.82,-12.2 29.82,-33.45 0,-21.25 -7.15,-33.46 -29.82,-33.46 z m 0,55.64 c -12.82,0 -16.62,-6.22 -16.62,-22.18 0,-15.96 3.8,-22.21 16.62,-22.21 12.82,0 16.63,6.21 16.63,22.21 0,16 -3.8,22.18 -16.63,22.18 z"
       id="path1034" />
    <path
       d="m 586.21,173.78 c -6.9,3.55 -13.61,5.57 -18.44,5.54 -5.93,0 -9.29,-2.69 -9.29,-11.81 v -42.38 h -12.82 v 44.18 c 0,15.15 7.87,21.29 18.64,21.26 7.05,0 15.05,-2.62 22.61,-6.49 l 0.6,5 H 599 v -64 h -12.79 z"
       id="path1036" />
    <path
       d="m 654.62,123.68 c -7.32,0 -16.08,2.51 -24.79,6.59 l -0.61,-5.14 H 617.7 v 64 h 12.83 v -48.54 c 7.94,-3.63 15.4,-5.66 20.89,-5.66 6.28,0 9.82,2.67 9.82,11.81 v 42.41 h 12.82 v -44.21 c -0.01,-15.2 -8.06,-21.26 -19.44,-21.26 z"
       id="path1038" />
    <path
       d="m 749.26,98.53 h -12.82 v 31.6 c -8.57,-4.74 -14.16,-6.45 -21.22,-6.45 -19.3,0 -24.54,12.85 -24.54,33.55 0,20.7 5.24,33.37 24.5,33.37 7.28,0 13,-1.8 21.93,-6.82 l 0.64,5.37 h 11.52 z m -12.82,75 c -8.65,4.75 -12.66,5.86 -17.62,5.86 -11.82,0 -15,-6.32 -15,-22.21 v 0 c 0,-15.9 3.16,-22.21 15,-22.21 4.8,0 8.81,1 17.58,5.86 z"
       id="path1040" />
    <path
       d="M 190.19,97.78 159.75,80.21 a 9.49,9.49 0 0 0 -14.23,8.21 v 66.65 a 13.34,13.34 0 0 0 6.65,11.51 l 12.4,7.16 -26.7,15.4 -26.67,-15.4 12.4,-7.16 a 13.34,13.34 0 0 0 6.65,-11.51 V 88.42 A 9.49,9.49 0 0 0 116,80.21 L 85.58,97.78 a 13.33,13.33 0 0 0 -6.64,11.51 v 86.42 a 13.33,13.33 0 0 0 6.64,11.51 l 45.66,26.36 a 13.36,13.36 0 0 0 13.29,0 l 45.66,-26.36 a 13.34,13.34 0 0 0 6.65,-11.51 V 109.29 A 13.34,13.34 0 0 0 190.19,97.78 Z M 82.69,109.29 A 9.57,9.57 0 0 1 87.46,101 L 117.9,83.46 a 5.74,5.74 0 0 1 8.6,5 v 66.65 a 9.57,9.57 0 0 1 -4.77,8.26 L 85.58,184.2 a 13.08,13.08 0 0 0 -2.89,2.26 z M 188.32,204 142.66,230.36 a 9.56,9.56 0 0 1 -9.54,0 L 87.46,204 a 9.54,9.54 0 0 1 0,-16.52 l 20,-11.54 28.54,16.45 a 3.81,3.81 0 0 0 3.78,0 l 28.55,-16.48 20,11.54 a 9.54,9.54 0 0 1 0,16.52 z m 4.77,-17.51 a 13.37,13.37 0 0 0 -2.9,-2.26 L 154,163.33 a 9.57,9.57 0 0 1 -4.77,-8.26 V 88.42 a 5.74,5.74 0 0 1 8.61,-5 L 188.32,101 a 9.57,9.57 0 0 1 4.77,8.26 z"
       id="path1042" />
  </g>
  <metadata
     id="metadata1531">
    <rdf:RDF>
      <cc:Work
         rdf:about="">
        <dc:title>Unbound_Outline_Black</dc:title>
      </cc:Work>
    </rdf:RDF>
  </metadata>
</svg>
